<?xml version="1.0" encoding="utf-8"?>
<svg version="1.0" width="386.000000pt" height="387.000000pt" viewBox="0 0 386.000000 387.000000" preserveAspectRatio="xMidYMid meet" xmlns="http://www.w3.org/2000/svg">
  <g transform="matrix(0.1, 0, 0, -0.1, 1.007813, 386.328125)" fill="#000000" stroke="none">
    <path d="M1595 3765 c-273 -44 -522 -170 -710 -360 -80 -81 -173 -195 -149 -183 189 90 259 116 394 145 118 25 372 25 490 0 263 -56 472 -168 655 -352 190 -190 304 -402 361 -670 37 -176 19 -463 -42 -644 -26 -77 -102 -236 -136 -283 -29 -42 -9 -34 78 28 576 409 713 1195 311 1784 -66 97 -221 251 -318 317 -147 101 -311 171 -489 209 -106 22 -333 27 -445 9z" style="fill: rgb(0, 193, 240);"/>
    <path d="M3284 3083 c150 -301 176 -649 70 -971 -129 -393 -457 -713 -849 -827 -252 -73 -541 -70 -780 10 -61 20 -214 93 -273 130 -54 33 -50 25 39 -95 333 -449 910 -631 1439 -454 438 147 759 511 856 974 26 119 26 373 1 490 -55 257 -159 457 -330 636 -79 83 -184 174 -201 174 -3 0 9 -30 28 -67z" style="fill: rgb(0, 193, 240);"/>
    <path d="M1145 3066 c-346 -58 -644 -238 -842 -507 -376 -512 -325 -1221 120 -1671 60 -61 187 -165 187 -153 0 3 -17 40 -39 83 -140 279 -168 612 -77 924 96 329 342 624 650 777 199 99 353 135 581 135 267 1 446 -50 689 -194 l38 -23 -27 44 c-76 120 -206 260 -326 349 -138 102 -325 186 -504 226 -98 21 -349 27 -450 10z" style="fill: rgb(0, 193, 240);"/>
    <path d="M1340 2427 c-97 -65 -273 -241 -337 -337 -95 -142 -162 -301 -199 -470 -26 -118 -26 -381 -1 -500 56 -260 167 -468 347 -651 101 -102 162 -151 275 -217 238 -139 548 -199 823 -158 348 52 646 228 856 509 16 20 26 37 23 37 -3 0 -41 -17 -84 -39 -93 -46 -204 -84 -316 -108 -115 -25 -370 -25 -487 0 -526 112 -913 502 -1017 1025 -23 119 -23 355 0 477 31 156 87 304 161 420 21 31 36 58 34 60 -2 2 -37 -20 -78 -48z" style="fill: rgb(0, 193, 240);"/>
  </g>
</svg>