<?xml version="1.0" standalone="no"?>
<!DOCTYPE svg PUBLIC "-//W3C//DTD SVG 20010904//EN"
 "http://www.w3.org/TR/2001/REC-SVG-20010904/DTD/svg10.dtd">
<svg version="1.0" xmlns="http://www.w3.org/2000/svg"
 width="251.000000pt" height="230.000000pt" viewBox="0 0 251.000000 230.000000"
 preserveAspectRatio="xMidYMid meet">

<g transform="translate(0.000000,230.000000) scale(0.100000,-0.100000)"
fill="#000000" stroke="none">
<path d="M1102 2160 c-113 -57 -172 -153 -172 -282 0 -72 3 -82 46 -164 25
-48 74 -135 108 -193 35 -58 98 -167 141 -241 160 -276 188 -322 199 -326 6
-2 172 -3 368 -2 l356 3 -62 110 c-35 61 -77 133 -93 160 -37 61 -163 274
-262 445 -40 69 -87 148 -103 175 -17 28 -53 88 -80 135 -62 108 -98 145 -173
181 -50 24 -73 29 -136 29 -64 0 -85 -5 -137 -30z"/>
<path d="M723 1599 c-6 -8 -43 -69 -82 -136 -39 -68 -103 -178 -142 -245 -40
-68 -90 -154 -112 -193 -22 -38 -78 -135 -125 -215 -199 -338 -213 -373 -193
-484 21 -115 80 -189 188 -239 68 -31 180 -30 243 2 100 52 116 72 262 326 42
72 97 168 125 215 27 47 84 145 126 217 42 73 77 137 77 142 0 5 -16 38 -37
73 -20 35 -66 115 -103 178 -37 63 -97 167 -133 230 -37 63 -70 121 -74 129
-7 11 -10 11 -20 0z"/>
<path d="M1194 648 c-13 -24 -54 -95 -91 -158 -36 -63 -96 -167 -133 -230 -37
-63 -77 -134 -89 -158 l-22 -43 663 3 663 3 57 28 c67 33 121 90 155 164 21
46 25 66 21 131 -6 132 -79 238 -192 281 -55 20 -71 21 -532 21 l-474 0 -26
-42z"/>
</g>
</svg>
